<svg xmlns="http://www.w3.org/2000/svg" viewBox="0 0 467 467"><defs><style>.cls-1{isolation:isolate;}.cls-2,.cls-20,.cls-4,.cls-6,.cls-8{fill:none;stroke-miterlimit:10;}.cls-2,.cls-4{stroke:#fe6601;}.cls-2,.cls-20{stroke-width:2px;}.cls-3{fill:#fe6601;}.cls-4,.cls-6{stroke-width:3px;}.cls-5{fill:#1a3760;}.cls-20,.cls-6,.cls-8{stroke:#1a3760;}.cls-7{fill:#fff;}.cls-9{fill:#e1e5e2;}.cls-10{fill:#ed5500;}.cls-11{fill:#f5f5f5;}.cls-12{fill:#3c4150;}.cls-13,.cls-17,.cls-18{mix-blend-mode:multiply;}.cls-14{fill:#f8e6da;}.cls-15{fill:#253259;}.cls-16{fill:#dedefa;}.cls-17{opacity:0.33;}.cls-18{opacity:0.52;}.cls-19{fill:#d7876c;}.cls-21{font-size:75px;font-family:Poppins-Bold, Poppins;font-weight:700;}</style></defs><g class="cls-1"><g id="Layer_1" data-name="Layer 1"><rect class="cls-2" x="21.27" y="346.33" width="50.02" height="18.82" rx="9.41"/><path class="cls-3" d="M41,353.47a2,2,0,0,0-.77-.58,2.46,2.46,0,0,0-1-.2,2.57,2.57,0,0,0-1.11.23,2.66,2.66,0,0,0-.88.64,2.94,2.94,0,0,0-.58,1,3.74,3.74,0,0,0,0,2.47,3,3,0,0,0,.57,1,2.65,2.65,0,0,0,.87.65,2.52,2.52,0,0,0,1.06.23,2.42,2.42,0,0,0,1.16-.27,2.3,2.3,0,0,0,.82-.76l1.77,1.31a3.75,3.75,0,0,1-1.55,1.27,4.8,4.8,0,0,1-1.93.4,5.77,5.77,0,0,1-2.07-.35,4.76,4.76,0,0,1-1.65-1,4.62,4.62,0,0,1-1.08-1.6,5.94,5.94,0,0,1,0-4.18,4.71,4.71,0,0,1,1.08-1.6,4.92,4.92,0,0,1,1.65-1,6,6,0,0,1,2.07-.35,6.35,6.35,0,0,1,.85.07,4.31,4.31,0,0,1,.87.24,3.82,3.82,0,0,1,.82.44,3.4,3.4,0,0,1,.71.66Z"/><path class="cls-3" d="M48.73,353.32a1.69,1.69,0,0,0-.7-.48,2.67,2.67,0,0,0-.84-.15,1.93,1.93,0,0,0-.47.05,1.88,1.88,0,0,0-.47.17,1.14,1.14,0,0,0-.35.3.81.81,0,0,0-.13.47.74.74,0,0,0,.32.66,3,3,0,0,0,.82.4l1.07.32a4.36,4.36,0,0,1,1.06.46,2.28,2.28,0,0,1,1.15,2.15,3.1,3.1,0,0,1-.3,1.4,2.78,2.78,0,0,1-.8,1,3.39,3.39,0,0,1-1.19.58,5,5,0,0,1-1.41.19,5.12,5.12,0,0,1-1.74-.28,4.35,4.35,0,0,1-1.5-.93L44.76,358a2.23,2.23,0,0,0,.82.67,2.32,2.32,0,0,0,1,.24,2.37,2.37,0,0,0,.52-.06,1.72,1.72,0,0,0,.48-.19,1,1,0,0,0,.34-.31.84.84,0,0,0,.12-.45.8.8,0,0,0-.33-.68,3.07,3.07,0,0,0-.83-.43c-.34-.12-.7-.24-1.09-.35a5.08,5.08,0,0,1-1.09-.48,2.61,2.61,0,0,1-.83-.79,2.24,2.24,0,0,1-.33-1.29,3,3,0,0,1,.3-1.36,3.08,3.08,0,0,1,.82-1,3.4,3.4,0,0,1,1.17-.59,4.83,4.83,0,0,1,1.37-.2,5.54,5.54,0,0,1,1.58.23,3.56,3.56,0,0,1,1.37.78Z"/><path class="cls-3" d="M56.52,353.32a1.57,1.57,0,0,0-.7-.48,2.56,2.56,0,0,0-.83-.15,2,2,0,0,0-.48.05,1.81,1.81,0,0,0-.46.17,1,1,0,0,0-.35.3.84.84,0,0,0,.19,1.13,2.85,2.85,0,0,0,.82.4l1.06.32a4.43,4.43,0,0,1,1.07.46,2.54,2.54,0,0,1,.82.81,2.39,2.39,0,0,1,.33,1.34,3.1,3.1,0,0,1-.3,1.4,2.81,2.81,0,0,1-.81,1,3.34,3.34,0,0,1-1.18.58,5.07,5.07,0,0,1-1.42.19,5.2,5.2,0,0,1-1.74-.28,4.31,4.31,0,0,1-1.49-.93L52.56,358a2.15,2.15,0,0,0,.82.67,2.31,2.31,0,0,0,1,.24,2.46,2.46,0,0,0,.53-.06,1.78,1.78,0,0,0,.47-.19,1,1,0,0,0,.34-.31.77.77,0,0,0,.13-.45.8.8,0,0,0-.33-.68,3.14,3.14,0,0,0-.84-.43c-.33-.12-.7-.24-1.09-.35a5,5,0,0,1-1.08-.48,2.54,2.54,0,0,1-.84-.79,2.24,2.24,0,0,1-.33-1.29,2.84,2.84,0,0,1,.31-1.36,2.92,2.92,0,0,1,.81-1,3.36,3.36,0,0,1,1.18-.59,4.83,4.83,0,0,1,1.37-.2,5.52,5.52,0,0,1,1.57.23,3.42,3.42,0,0,1,1.37.78Z"/><circle class="cls-4" cx="433.41" cy="214.67" r="18.13"/><path class="cls-5" d="M428.32,203.68l17.89,12.37-18.65,10.27S427.85,203.2,428.32,203.68Z"/><path class="cls-5" d="M47.32,134.9c0-.08-.06-.14-.09-.21s0-.16-.06-.22l0,0a.58.58,0,0,0-.23-.13.56.56,0,0,0-.24-.1s0,0,0,0H10a.7.7,0,0,0-.7.7v23.38c0,.09.07.15.1.23s0,.17.08.24h0a.7.7,0,0,0,.5.22H46.62a.71.71,0,0,0,.51-.22h0c.06-.07.05-.16.08-.24s.09-.14.09-.23Zm-36.64,2,11.59,9.3-11.59,10.5Zm17.1,11.93L11.27,135.6H44.61Zm-4.42-1.73s0,0,0,0l4,3.19a.71.71,0,0,0,.87,0l4.41-3.47,12.16,10.78h-33Zm10.38-1.18,12.19-9.59v20.39Z"/><circle class="cls-3" cx="46.22" cy="135.6" r="6.87"/><rect class="cls-6" x="328.07" y="38.09" width="99.2" height="65.59"/><rect class="cls-5" x="328.07" y="38.06" width="99.2" height="3.33"/><circle class="cls-7" cx="330.38" cy="39.68" r="0.8"/><circle class="cls-7" cx="333.24" cy="39.68" r="0.8"/><circle class="cls-7" cx="336.19" cy="39.68" r="0.8"/><rect class="cls-3" x="332.48" y="67.78" width="11.57" height="1.93" rx="0.3"/><rect class="cls-3" x="335.67" y="71.64" width="11.57" height="1.93" rx="0.79"/><rect class="cls-3" x="341.07" y="76.4" width="38.25" height="1.93" rx="0.79"/><rect class="cls-5" x="382.62" y="76.4" width="38.25" height="1.93" rx="0.79"/><rect class="cls-5" x="348.4" y="86.17" width="38.25" height="1.93" rx="0.79"/><rect class="cls-5" x="348.4" y="90.42" width="54.2" height="1.93" rx="0.79"/><rect class="cls-3" x="348.4" y="94.66" width="13.12" height="1.93" rx="0.67"/><rect class="cls-3" x="389.66" y="85.98" width="13.12" height="1.93" rx="0.67"/><rect class="cls-5" x="341.07" y="81.41" width="58.06" height="1.93" rx="0.79"/><path class="cls-3" d="M347.18,86.56a1.1,1.1,0,1,0-1.1,1.09A1.09,1.09,0,0,0,347.18,86.56Z"/><circle class="cls-3" cx="346.08" cy="91.57" r="1.09"/><circle class="cls-3" cx="346.08" cy="95.43" r="1.09"/><path class="cls-3" d="M367.4,54.44l-8.72,3.42v0l8.72,3.41v3.74l-13.92-5.44V56.15L367.4,50.7Z"/><path class="cls-3" d="M377.75,45.28l3.14,1-8.26,21.44-3.11-1Z"/><path class="cls-3" d="M383,61.32l8.72-3.41v0L383,54.44V50.7l13.92,5.45v3.47L383,65.06Z"/><path class="cls-3" d="M220.63,52.05l-7.15,2.8v0l7.15,2.8v3.06L209.21,56.3V53.45L220.63,49Z"/><path class="cls-3" d="M234.51,50.93a3.59,3.59,0,0,0-1.27-1,4.37,4.37,0,0,0-1.75-.33,4.45,4.45,0,0,0-1.84.38,4.35,4.35,0,0,0-1.47,1.07,5.05,5.05,0,0,0-1,1.64,6.24,6.24,0,0,0,0,4.12,5,5,0,0,0,1,1.62,4.27,4.27,0,0,0,1.43,1.07,4.09,4.09,0,0,0,1.77.39,4,4,0,0,0,1.92-.45,3.91,3.91,0,0,0,1.38-1.27l2.93,2.19a6.09,6.09,0,0,1-2.57,2.1,8,8,0,0,1-3.21.68,9.92,9.92,0,0,1-3.45-.59,7.93,7.93,0,0,1-2.73-1.68,7.8,7.8,0,0,1-1.79-2.65,9.61,9.61,0,0,1,0-7,7.75,7.75,0,0,1,1.79-2.66A8.08,8.08,0,0,1,228.37,47a9.92,9.92,0,0,1,3.45-.58,8.78,8.78,0,0,1,1.42.12,7.54,7.54,0,0,1,1.44.4,6.35,6.35,0,0,1,1.36.72,5.57,5.57,0,0,1,1.18,1.1Z"/><path class="cls-3" d="M238.66,54.76a8.94,8.94,0,0,1,.65-3.47,7.48,7.48,0,0,1,1.79-2.66A8.08,8.08,0,0,1,243.83,47a10.58,10.58,0,0,1,6.91,0,8.08,8.08,0,0,1,2.73,1.68,7.75,7.75,0,0,1,1.79,2.66,9.75,9.75,0,0,1,0,7,7.8,7.8,0,0,1-1.79,2.65,7.93,7.93,0,0,1-2.73,1.68,10.41,10.41,0,0,1-6.91,0,7.93,7.93,0,0,1-2.73-1.68,7.53,7.53,0,0,1-1.79-2.65A9,9,0,0,1,238.66,54.76Zm3.66,0a5.73,5.73,0,0,0,.35,2.07,4.8,4.8,0,0,0,1,1.62,4.52,4.52,0,0,0,1.57,1.07,5.56,5.56,0,0,0,4.09,0,4.48,4.48,0,0,0,1.56-1.07,4.82,4.82,0,0,0,1-1.62,6.24,6.24,0,0,0,0-4.12,4.81,4.81,0,0,0-1-1.64A4.62,4.62,0,0,0,249.33,50a5.69,5.69,0,0,0-4.09,0,4.66,4.66,0,0,0-1.57,1.07,4.79,4.79,0,0,0-1,1.64A5.73,5.73,0,0,0,242.32,54.76Z"/><path class="cls-3" d="M258.29,46.77h5.28a15.4,15.4,0,0,1,3.65.43,8.42,8.42,0,0,1,3,1.39,6.75,6.75,0,0,1,2,2.49,8.33,8.33,0,0,1,.76,3.73,7.75,7.75,0,0,1-.73,3.42,7.4,7.4,0,0,1-2,2.48,8.82,8.82,0,0,1-2.86,1.52,11.05,11.05,0,0,1-3.41.52h-5.76Zm3.52,12.73h1.83a9.63,9.63,0,0,0,2.27-.25,4.81,4.81,0,0,0,1.82-.82,3.92,3.92,0,0,0,1.2-1.51,5.29,5.29,0,0,0,.44-2.29,4.33,4.33,0,0,0-.44-2,4,4,0,0,0-1.18-1.44,5.17,5.17,0,0,0-1.75-.84,7.68,7.68,0,0,0-2.11-.29h-2.08Z"/><path class="cls-3" d="M275.56,46.77h10.85V50h-7.33v3H286v3.25h-6.92V59.5h7.74v3.25H275.56Z"/><path class="cls-3" d="M289.82,57.7,297,54.9v0l-7.15-2.8V49l11.42,4.46V56.3l-11.42,4.46Z"/><rect class="cls-4" x="86.2" y="292.34" width="38.22" height="38.22" rx="1.81"/><path class="cls-5" d="M116.67,312.65a12.8,12.8,0,0,0-.42-3.84l3-2.73-1.77-3.23L113.78,304c-.06-.07-.11-.15-.18-.22a11.87,11.87,0,0,0-2.94-2.44l.36-3.9-3.42-1.1-1.91,3.44a11.28,11.28,0,0,0-4,.39l-2.35-2.84-3.14,1.78,1,3.55c-.07.06-.15.11-.21.17a12.13,12.13,0,0,0-2.33,3l-3.77,0-.82,3.61L93.25,311a12.59,12.59,0,0,0,.45,4.22L90.84,318l1.81,3.2L96.21,320l.08.1a11.88,11.88,0,0,0,2.89,2.4l0,4.3,3.49.83,1.58-3.53a11.4,11.4,0,0,0,4-.42l2.68,2.94,3.08-1.9-1.2-3.61.08-.07a12,12,0,0,0,2.39-3.17l3.74.3,1-3.56Zm-6.16,5.53A8,8,0,0,1,99,317.49a8.66,8.66,0,0,1,.46-11.91,7.94,7.94,0,0,1,11.48.7A8.64,8.64,0,0,1,110.51,318.18Z"/><path class="cls-5" d="M163.19,341.24h-2.56a4.16,4.16,0,0,1-1.38-.22,2.88,2.88,0,0,1-1.17-.74,3.52,3.52,0,0,1-.77-1.27,5.29,5.29,0,0,1-.27-1.78V333a.83.83,0,0,0-.21-.6,1.66,1.66,0,0,0-.61-.4,2.92,2.92,0,0,0-.76-.19c-.27,0-.47-.05-.61-.05a.45.45,0,0,1-.45-.44v-2.79a.45.45,0,0,1,.45-.44c.14,0,.34,0,.61-.05a3,3,0,0,0,.76-.19,1.57,1.57,0,0,0,.61-.41.79.79,0,0,0,.21-.59v-4.22a5.41,5.41,0,0,1,.25-1.76,3.34,3.34,0,0,1,.76-1.27,3,3,0,0,1,1.18-.73,4.24,4.24,0,0,1,1.4-.22h2.56a.45.45,0,0,1,.45.45v2.78a.45.45,0,0,1-.45.45H162a1.61,1.61,0,0,0-.68.1.73.73,0,0,0-.3.22.78.78,0,0,0-.12.32,4,4,0,0,0,0,.47v3.93a3.47,3.47,0,0,1-.29,1.53,2.53,2.53,0,0,1-.74.91l-.15.1.15.1a2.62,2.62,0,0,1,.74.91,3.52,3.52,0,0,1,.29,1.54v3.95a4,4,0,0,0,0,.47.62.62,0,0,0,.42.54,1.56,1.56,0,0,0,.68.11h1.2a.45.45,0,0,1,.45.44v2.78A.45.45,0,0,1,163.19,341.24Zm-7.89-10.31.26,0a3.89,3.89,0,0,1,1,.25,2.47,2.47,0,0,1,.92.61,1.68,1.68,0,0,1,.46,1.22v4.19a4.22,4.22,0,0,0,.22,1.47,2.54,2.54,0,0,0,.57.95,2.11,2.11,0,0,0,.82.53,3.46,3.46,0,0,0,1.09.17h2.11v-1.89H162a2.45,2.45,0,0,1-1.06-.19,1.54,1.54,0,0,1-.66-.53A1.75,1.75,0,0,1,160,337c0-.2,0-.4,0-.58V332.5a2.67,2.67,0,0,0-.19-1.14,1.64,1.64,0,0,0-.46-.58,1.45,1.45,0,0,0-.6-.25,5.36,5.36,0,0,0-.77-.09.46.46,0,0,1-.42-.45.51.51,0,0,1,.42-.5,4.18,4.18,0,0,0,.76-.1,1.57,1.57,0,0,0,.61-.26,1.64,1.64,0,0,0,.46-.58,2.7,2.7,0,0,0,.19-1.14v-3.93c0-.18,0-.38,0-.58a1.75,1.75,0,0,1,.27-.71,1.67,1.67,0,0,1,.66-.53,2.45,2.45,0,0,1,1.06-.19h.75v-1.88h-2.11a3.27,3.27,0,0,0-1.11.17,2.1,2.1,0,0,0-.83.51,2.5,2.5,0,0,0-.55.93,4.48,4.48,0,0,0-.21,1.47v4.22a1.7,1.7,0,0,1-.45,1.22,2.59,2.59,0,0,1-.93.61,4,4,0,0,1-1,.25l-.26,0Z"/><path class="cls-5" d="M173.65,341.24h-2.56a.45.45,0,0,1-.45-.45V338a.45.45,0,0,1,.45-.44h1.2a1.65,1.65,0,0,0,.69-.11.69.69,0,0,0,.29-.23.65.65,0,0,0,.12-.31,4,4,0,0,0,0-.47v-3.92a3.42,3.42,0,0,1,.3-1.55,2.45,2.45,0,0,1,.73-.9l.15-.1-.15-.1a2.49,2.49,0,0,1-.73-.91,3.37,3.37,0,0,1-.3-1.54v-3.95a4,4,0,0,0,0-.47.78.78,0,0,0-.12-.32.76.76,0,0,0-.29-.22,1.71,1.71,0,0,0-.69-.1h-1.2a.45.45,0,0,1-.45-.45v-2.78a.45.45,0,0,1,.45-.45h2.63a3.89,3.89,0,0,1,1.32.22,2.84,2.84,0,0,1,1.16.75,3.5,3.5,0,0,1,.78,1.27,5.42,5.42,0,0,1,.26,1.77v4.19a.85.85,0,0,0,.2.6,1.63,1.63,0,0,0,.58.4,3,3,0,0,0,.75.19c.28,0,.49.05.66.05a.45.45,0,0,1,.45.44v2.79a.45.45,0,0,1-.45.44c-.17,0-.38,0-.66.05a2.78,2.78,0,0,0-.74.19,1.59,1.59,0,0,0-.59.4.85.85,0,0,0-.2.6v4.22A5.46,5.46,0,0,1,177,339a3.66,3.66,0,0,1-.76,1.26,3,3,0,0,1-1.17.73A4.24,4.24,0,0,1,173.65,341.24Zm-2.11-.89h2.11a3.23,3.23,0,0,0,1.11-.18,1.88,1.88,0,0,0,.81-.5,2.56,2.56,0,0,0,.56-.94,4.22,4.22,0,0,0,.22-1.47V333a1.73,1.73,0,0,1,.44-1.21,2.42,2.42,0,0,1,.9-.62,3.62,3.62,0,0,1,1-.25l.31,0V329l-.31,0a3.82,3.82,0,0,1-1-.25,2.42,2.42,0,0,1-.9-.62,1.71,1.71,0,0,1-.44-1.21V322.7a4.18,4.18,0,0,0-.22-1.47,2.62,2.62,0,0,0-.57-1,1.91,1.91,0,0,0-.81-.52,3,3,0,0,0-1-.17h-2.18v1.88h.75a2.45,2.45,0,0,1,1.06.19,1.59,1.59,0,0,1,.66.53,1.75,1.75,0,0,1,.27.71c0,.2,0,.4,0,.58v3.95a2.5,2.5,0,0,0,.2,1.14,1.38,1.38,0,0,0,.46.58,1.41,1.41,0,0,0,.59.25,5.36,5.36,0,0,0,.77.09.46.46,0,0,1,.42.45.49.49,0,0,1-.39.49l-.8.12a1.36,1.36,0,0,0-.59.25,1.48,1.48,0,0,0-.46.59,2.48,2.48,0,0,0-.2,1.14v3.92c0,.18,0,.38,0,.58a1.75,1.75,0,0,1-.27.71,1.67,1.67,0,0,1-.66.53,2.45,2.45,0,0,1-1.06.19h-.75Z"/><rect class="cls-5" x="65.86" y="75.81" width="275.31" height="181.89"/><rect class="cls-5" x="65.86" y="75.81" width="275.31" height="9.92"/><ellipse class="cls-3" cx="72.35" cy="80.77" rx="2.48" ry="2.47"/><path class="cls-3" d="M81.75,80.77a2.48,2.48,0,1,0-2.47,2.47A2.48,2.48,0,0,0,81.75,80.77Z"/><path class="cls-3" d="M88.68,80.77a2.48,2.48,0,1,0-2.48,2.47A2.48,2.48,0,0,0,88.68,80.77Z"/><rect class="cls-7" x="208.98" y="92.78" width="123.56" height="158.56"/><rect class="cls-3" x="208.98" y="92.61" width="123.56" height="7.85"/><rect class="cls-3" x="240.91" y="113.45" width="13.46" height="2.24" rx="0.24"/><rect class="cls-3" x="244.62" y="117.94" width="13.46" height="2.24" rx="0.64"/><rect class="cls-5" x="250.9" y="123.47" width="44.49" height="2.24" rx="0.64"/><rect class="cls-5" x="259.42" y="134.84" width="44.49" height="2.24" rx="0.64"/><rect class="cls-5" x="259.42" y="139.78" width="63.04" height="2.24" rx="0.64"/><rect class="cls-5" x="259.42" y="144.71" width="15.25" height="2.24" rx="0.64"/><rect class="cls-3" x="306.71" y="134.7" width="15.26" height="2.24" rx="0.24"/><rect class="cls-3" x="298.32" y="161.25" width="15.25" height="2.24" rx="0.24"/><rect class="cls-3" x="277.59" y="144.71" width="20.43" height="2.24" rx="0.64"/><rect class="cls-5" x="250.9" y="129.31" width="67.53" height="2.24" rx="0.64"/><rect class="cls-3" x="240.91" y="150.99" width="13.46" height="2.24" rx="0.24"/><rect class="cls-3" x="244.62" y="155.48" width="13.46" height="2.24" rx="0.64"/><rect class="cls-5" x="250.9" y="161.01" width="44.49" height="2.24" rx="0.64"/><rect class="cls-5" x="250.9" y="166.85" width="67.53" height="2.24" rx="0.64"/><rect class="cls-7" x="236.41" y="109.3" width="1.4" height="65.68" rx="0.15"/><rect class="cls-5" x="217.5" y="111.28" width="17.16" height="1.71" rx="0.18"/><rect class="cls-5" x="217.66" y="139.7" width="17.16" height="1.71" rx="0.18"/><rect class="cls-5" x="217.27" y="126.89" width="17.16" height="1.71" rx="0.18"/><rect class="cls-5" x="217.19" y="143.97" width="17.16" height="1.71" rx="0.18"/><rect class="cls-5" x="217.89" y="163.22" width="17.16" height="1.71" rx="0.18"/><rect class="cls-5" x="217.89" y="168.5" width="12.97" height="1.71" rx="0.18"/><rect class="cls-5" x="226.59" y="115.55" width="8.07" height="1.79" rx="0.19"/><rect class="cls-5" x="218.75" y="130.54" width="8.07" height="1.79" rx="0.19"/><rect class="cls-3" x="240.91" y="184.36" width="13.46" height="2.24" rx="0.24"/><rect class="cls-3" x="244.62" y="188.85" width="13.46" height="2.24" rx="0.64"/><rect class="cls-5" x="250.9" y="194.38" width="44.49" height="2.24" rx="0.64"/><rect class="cls-5" x="259.42" y="205.75" width="44.49" height="2.24" rx="0.64"/><rect class="cls-5" x="259.42" y="210.69" width="63.04" height="2.24" rx="0.64"/><rect class="cls-5" x="259.42" y="215.62" width="15.25" height="2.24" rx="0.64"/><rect class="cls-3" x="306.71" y="205.61" width="15.26" height="2.24" rx="0.24"/><rect class="cls-3" x="298.32" y="232.16" width="15.25" height="2.24" rx="0.24"/><rect class="cls-3" x="277.59" y="215.62" width="20.43" height="2.24" rx="0.64"/><rect class="cls-5" x="250.9" y="200.22" width="67.53" height="2.24" rx="0.64"/><rect class="cls-3" x="240.91" y="221.9" width="13.46" height="2.24" rx="0.24"/><rect class="cls-3" x="244.62" y="226.39" width="13.46" height="2.24" rx="0.64"/><rect class="cls-5" x="250.9" y="231.92" width="44.49" height="2.24" rx="0.64"/><rect class="cls-5" x="250.9" y="237.76" width="67.53" height="2.24" rx="0.64"/><rect class="cls-7" x="236.41" y="180.21" width="1.4" height="65.68" rx="0.15"/><rect class="cls-5" x="217.5" y="182.19" width="17.16" height="1.71" rx="0.18"/><rect class="cls-5" x="217.66" y="210.61" width="17.16" height="1.71" rx="0.18"/><rect class="cls-5" x="217.27" y="197.8" width="17.16" height="1.71" rx="0.18"/><rect class="cls-5" x="217.19" y="214.88" width="17.16" height="1.71" rx="0.18"/><rect class="cls-5" x="217.89" y="234.13" width="17.16" height="1.71" rx="0.18"/><rect class="cls-5" x="217.89" y="239.41" width="12.97" height="1.71" rx="0.18"/><rect class="cls-5" x="226.59" y="186.46" width="8.07" height="1.79" rx="0.19"/><rect class="cls-5" x="218.75" y="201.45" width="8.07" height="1.79" rx="0.19"/><path class="cls-7" d="M216.54,96.89a1.89,1.89,0,1,0-1.89,1.89A1.89,1.89,0,0,0,216.54,96.89Z"/><path class="cls-7" d="M222.6,96.89a1.89,1.89,0,1,0-1.89,1.89A1.88,1.88,0,0,0,222.6,96.89Z"/><path class="cls-7" d="M229,96.89a1.89,1.89,0,1,0-1.89,1.89A1.89,1.89,0,0,0,229,96.89Z"/><rect class="cls-7" x="72.17" y="92.78" width="129.13" height="158.56"/><rect class="cls-3" x="72.17" y="92.61" width="129.13" height="7.85"/><path class="cls-5" d="M79.72,96.89a1.89,1.89,0,1,0-1.89,1.89A1.88,1.88,0,0,0,79.72,96.89Z"/><path class="cls-5" d="M85.79,96.89a1.89,1.89,0,1,0-1.89,1.89A1.89,1.89,0,0,0,85.79,96.89Z"/><path class="cls-5" d="M92.15,96.89a1.89,1.89,0,1,0-1.89,1.89A1.88,1.88,0,0,0,92.15,96.89Z"/><rect class="cls-3" x="77.93" y="106.04" width="117.33" height="33.01"/><ellipse class="cls-5" cx="89.94" cy="152.98" rx="8.88" ry="8.86"/><rect class="cls-5" x="104.8" y="146.16" width="42.86" height="1.87" rx="0.72"/><rect class="cls-5" x="104.8" y="152.98" width="46.79" height="1.36" rx="0.52"/><rect class="cls-5" x="121.76" y="157.07" width="54.13" height="1.36" rx="0.52"/><rect class="cls-3" x="153.29" y="152.98" width="10.93" height="1.36" rx="0.52"/><rect class="cls-5" x="165.58" y="152.98" width="25.02" height="1.36" rx="0.52"/><rect class="cls-3" x="106.83" y="162.82" width="3.64" height="3.63"/><rect class="cls-3" x="120.74" y="162.82" width="3.64" height="3.63"/><rect class="cls-3" x="113.57" y="162.82" width="3.64" height="3.63"/><rect class="cls-5" x="158.89" y="209.47" width="34.29" height="34.2"/><path class="cls-7" d="M191.07,238.83H161.64a1,1,0,1,1,0-1.94h29.43a1,1,0,1,1,0,1.94Z"/><path class="cls-7" d="M190.67,238.83a1,1,0,0,1-.9-.6l-8-19.58-6.22,11.29a1,1,0,0,1-1.4.33l-3.51-2.37-7.69,10.53a1,1,0,0,1-1.57-1.14L169.59,226a1,1,0,0,1,1.33-.23l3.4,2.3L181,215.94a1,1,0,0,1,1.75.1l8.82,21.46a1,1,0,0,1-.9,1.33Z"/><path class="cls-7" d="M169.76,223.26A4.24,4.24,0,1,1,174,219,4.24,4.24,0,0,1,169.76,223.26Zm0-6.53a2.3,2.3,0,1,0,2.31,2.3A2.3,2.3,0,0,0,169.76,216.73Z"/><rect class="cls-3" x="119.38" y="209.47" width="34.29" height="34.2"/><path class="cls-7" d="M151.56,238.83H122.13a1,1,0,1,1,0-1.94h29.43a1,1,0,1,1,0,1.94Z"/><path class="cls-7" d="M151.16,238.83a1,1,0,0,1-.9-.6l-8-19.58L136,229.94a1,1,0,0,1-.62.47,1,1,0,0,1-.78-.14l-3.5-2.37-7.7,10.53a1,1,0,0,1-1.57-1.14L130.08,226a1,1,0,0,1,1.33-.23l3.4,2.3,6.69-12.13a1,1,0,0,1,1.74.1l8.82,21.46a1,1,0,0,1-.9,1.33Z"/><path class="cls-7" d="M130.26,223.26A4.24,4.24,0,1,1,134.5,219,4.25,4.25,0,0,1,130.26,223.26Zm0-6.53a2.3,2.3,0,1,0,2.3,2.3A2.31,2.31,0,0,0,130.26,216.73Z"/><path class="cls-5" d="M113.9,244.33h-2.68a.66.66,0,0,1,0-1.32h2v-1.93a.66.66,0,0,1,1.32,0v2.59A.67.67,0,0,1,113.9,244.33Zm-8,0h-5.27a.66.66,0,1,1,0-1.32H106a.66.66,0,1,1,0,1.32Zm-10.54,0H90.14a.66.66,0,0,1,0-1.32h5.27a.66.66,0,1,1,0,1.32Zm-10.53,0H79.61a.67.67,0,0,1-.66-.66.69.69,0,0,1,.78-.66h5.15a.66.66,0,1,1,0,1.32ZM79.61,239a.66.66,0,0,1-.66-.66v-5.27a.66.66,0,0,1,1.32,0v5.27A.66.66,0,0,1,79.61,239Zm34.29-2.57a.65.65,0,0,1-.66-.65v-5.27a.66.66,0,0,1,1.32,0v5.27A.66.66,0,0,1,113.9,236.47Zm-34.29-8a.67.67,0,0,1-.66-.66v-5.27a.66.66,0,1,1,1.32,0v5.27A.67.67,0,0,1,79.61,228.51Zm34.29-2.57a.66.66,0,0,1-.66-.66V220a.66.66,0,0,1,1.32,0v5.27A.67.67,0,0,1,113.9,225.94Zm-34.29-8a.67.67,0,0,1-.66-.66V212a.66.66,0,1,1,1.32,0v5.27A.67.67,0,0,1,79.61,218Zm34.29-2.57a.65.65,0,0,1-.66-.66v-5.26a.66.66,0,0,1,1.32,0v5.26A.66.66,0,0,1,113.9,215.4Zm-5.26-5.28h-5.27a.66.66,0,1,1,0-1.31h5.27a.66.66,0,1,1,0,1.31Zm-10.54,0H92.84a.66.66,0,1,1,0-1.31H98.1a.66.66,0,1,1,0,1.31Zm-10.53,0H82.3a.66.66,0,1,1,0-1.31h5.27a.66.66,0,1,1,0,1.31Z"/><rect class="cls-8" x="79.32" y="171" width="114.54" height="29.17"/><rect class="cls-3" x="88.62" y="176.12" width="42.86" height="1.87" rx="0.72"/><rect class="cls-5" x="88.62" y="182.94" width="46.79" height="1.36" rx="0.52"/><rect class="cls-5" x="89.01" y="187.03" width="54.13" height="1.36" rx="0.52"/><rect class="cls-5" x="145.36" y="187.03" width="40.56" height="1.36" rx="0.52"/><rect class="cls-5" x="137.12" y="182.94" width="10.93" height="1.36" rx="0.52"/><rect class="cls-3" x="149.41" y="182.94" width="25.02" height="1.36" rx="0.52"/><rect class="cls-3" x="126.71" y="192.52" width="3.64" height="3.63"/><rect class="cls-3" x="140.63" y="192.52" width="3.64" height="3.63"/><rect class="cls-3" x="133.46" y="192.52" width="3.64" height="3.63"/><rect class="cls-3" x="42.87" y="219.74" width="49.97" height="49.97" transform="translate(135.71 489.44) rotate(180)"/><path class="cls-7" d="M45.93,262.63h42.9a1.42,1.42,0,1,0,0-2.83H45.93a1.42,1.42,0,0,0,0,2.83Z"/><path class="cls-7" d="M46.52,262.63a1.41,1.41,0,0,0,1.31-.88l11.72-28.61,9.07,16.5a1.43,1.43,0,0,0,.91.7,1.48,1.48,0,0,0,1.12-.21l5.11-3.47L87,262.05a1.41,1.41,0,0,0,2.29-1.66l-12-16.5a1.41,1.41,0,0,0-1.93-.34l-5,3.37-9.74-17.73a1.39,1.39,0,0,0-1.32-.73,1.41,1.41,0,0,0-1.23.87L45.21,260.68a1.42,1.42,0,0,0,.78,1.85A1.39,1.39,0,0,0,46.52,262.63Z"/><path class="cls-7" d="M70.8,233.7A6.19,6.19,0,1,1,77,239.89,6.2,6.2,0,0,1,70.8,233.7Zm2.83,0A3.36,3.36,0,1,0,77,230.34,3.36,3.36,0,0,0,73.63,233.7Z"/><rect class="cls-5" x="41.81" y="26.1" width="84.95" height="29.36" rx="14.15"/><path class="cls-7" d="M65.87,33.7h5.41a10.5,10.5,0,0,1,2.14.21,4.86,4.86,0,0,1,1.76.71A3.66,3.66,0,0,1,76.37,36a4.68,4.68,0,0,1,.44,2.14,5,5,0,0,1-.41,2.14,3.51,3.51,0,0,1-1.13,1.38,4.57,4.57,0,0,1-1.71.73,9.63,9.63,0,0,1-2.14.22H69.08v5.67H65.87Zm3.21,6.17h2.14a3.77,3.77,0,0,0,.83-.08,2.08,2.08,0,0,0,.72-.28,1.52,1.52,0,0,0,.51-.53,1.71,1.71,0,0,0,.2-.86,1.47,1.47,0,0,0-.26-.89,1.61,1.61,0,0,0-.66-.52,2.49,2.49,0,0,0-.89-.24,7.76,7.76,0,0,0-1,0H69.08Z"/><path class="cls-7" d="M78.83,33.7H82v5.43h6.23V33.7h3.21V48.26H88.26V42H82v6.29h-3.2Z"/><path class="cls-7" d="M94.43,33.7h5.41a10.43,10.43,0,0,1,2.14.21,4.86,4.86,0,0,1,1.76.71A3.57,3.57,0,0,1,104.93,36a4.56,4.56,0,0,1,.44,2.14,4.83,4.83,0,0,1-.41,2.14,3.43,3.43,0,0,1-1.13,1.38,4.57,4.57,0,0,1-1.71.73,9.54,9.54,0,0,1-2.13.22H97.64v5.67H94.43Zm3.21,6.17h2.14a3.71,3.71,0,0,0,.83-.08,2.08,2.08,0,0,0,.72-.28,1.47,1.47,0,0,0,.52-.53,1.71,1.71,0,0,0,.19-.86,1.46,1.46,0,0,0-.25-.89,1.76,1.76,0,0,0-.66-.52,2.6,2.6,0,0,0-.9-.24,7.7,7.7,0,0,0-.94,0H97.64Z"/><g id="Notice_Board" data-name="Notice Board"><path class="cls-9" d="M236.55,260.73a.35.35,0,1,1-.7,0"/><rect class="cls-7" x="401.55" y="369.71" width="7.41" height="55.82"/><path class="cls-7" d="M355.44,360.08,397,307.65s11.94-14.28,32.47-8a2.9,2.9,0,0,1,2,3.26l-10.88,65a2.91,2.91,0,0,1-2.87,2.42H355.44Z"/><rect class="cls-9" x="397.39" y="422.41" width="15.75" height="3.68"/><path class="cls-3" d="M320.34,349.31c.57,15.2,5.62,62.19,7.24,75.05.1.8.18,1.46.26,2a.61.61,0,0,0,.61.53h8.28a4.36,4.36,0,0,0,4.34-3.88l2.31-37.77c1.06-7.89,1.19-16.56,4-24L358,339.08s-1.79-.29-4.55-.64c-1.87-.24-4.18-.51-6.7-.72a77.83,77.83,0,0,0-15.7-.07C320.82,339,320.19,345.36,320.34,349.31Z"/><path class="cls-10" d="M327.58,424.36c.1.8.18,1.46.26,2a.61.61,0,0,0,.61.53h8.28a4.36,4.36,0,0,0,4.34-3.88l2.31-37.77c1.06-7.89,1.19-16.56,4-24L358,339.08s-1.79-.29-4.55-.64c-1.87-.24-4.18-.51-6.7-.72a16.59,16.59,0,0,0-2.47,2.11,6.75,6.75,0,0,0-1.49,2.11,10.07,10.07,0,0,0-.48,2.56,16.6,16.6,0,0,1-3.13,7.71c-1.25,1.68-2.84,3.15-3.69,5.07-1.73,4,.15,8.58-.65,12.82-.52,2.75-2.16,5.22-2.52,8-.68,5.15,3.12,10,2.88,15.21-.17,3.7-2.37,7-3,10.67-.52,2.93,0,5.93.14,8.91s-.12,6.17-1.92,8.54A35,35,0,0,1,327.58,424.36Z"/><path class="cls-3" d="M352.87,418.84c.47,2.89.86,5.13,1.09,6.51a1.86,1.86,0,0,0,1.83,1.52h8.29a4.4,4.4,0,0,0,4.4-4.14l1.93-62.09,20.06-.14c22.9-.13,23.95-27,23.95-27l-4.56.23-36.24,1.82s-24.36,1.68-26.23,10.48C344.12,361.38,350.05,401.61,352.87,418.84Z"/><path class="cls-10" d="M352.87,418.84c.47,2.89.86,5.13,1.09,6.51a1.86,1.86,0,0,0,1.83,1.52h8.29a4.4,4.4,0,0,0,4.4-4.14l1.93-62.09,20.06-.14c22.9-.13,23.95-27,23.95-27l-4.56.23a9.89,9.89,0,0,1-1.76,5.4,12.1,12.1,0,0,1-6.75,5.31c-4,1.16-8.66.39-11.84,3-1.44,1.19-2.35,2.94-3.84,4.08-3.67,2.84-9,1-13.57,1.89-5,1-8.66,5.42-10.16,10.25s-1.15,10-.53,15c.43,3.6,1,7.27.2,10.8-.71,3.07-2.42,5.91-2.57,9.06-.12,2.86,1.07,5.67.87,8.53C359.6,411.69,355.89,415.14,352.87,418.84Z"/><path class="cls-7" d="M359,333.49a255.79,255.79,0,0,0,25.51,3.27c24.76,1.73,29.88-3.27,29.88-3.27s.14-1,.35-2.76.52-4.39.85-7.46v0c.41-3.94.89-8.69,1.28-13.61.35-4.29.63-8.71.78-12.84.26-6.52.16-12.35-.58-15.83a13.11,13.11,0,0,0-4.41-7.31,22.76,22.76,0,0,0-6.57-3.87c-6.81-2.72-15.66-3.56-23.49-3.77A18.37,18.37,0,0,0,370,270.06a17,17,0,0,0-4.55,6.07c-.79,1.8-1.59,7.28-1.76,9.25l-3.21,33-.59,6.07-.78,8Z"/><path class="cls-7" d="M417.77,294.8c-2.1,16-6.32,23.74-14,28.93-9.24,6.22-47.25,4.4-47.25,4.4,1.19-3.59,1.16-7.18-.83-9.71l40.81-9"/><polygon class="cls-7" points="364.58 426.87 364.73 434.15 356.6 435.02 356.42 426.87 364.58 426.87"/><path class="cls-7" d="M357.32,431.39h0a1.29,1.29,0,0,0-1.3-1.28h0a1.27,1.27,0,0,0-1.21.86l-.94,2.64-8.54,2.91a2.83,2.83,0,0,0-1.91,2.68h0a.36.36,0,0,0,.36.35l23.81-.15a.35.35,0,0,0,.35-.35l0-3.23s-.11-4.07-3.43-4.84c0,0-1.61,3.42-4.87,3.12C357.58,433.91,357.32,431.39,357.32,431.39Z"/><polygon class="cls-7" points="337.25 426.87 337.4 434.15 329.27 435.02 329.1 426.87 337.25 426.87"/><path class="cls-7" d="M330,431.39h0a1.29,1.29,0,0,0-1.3-1.28h0a1.27,1.27,0,0,0-1.21.86l-.94,2.64L318,436.52a2.81,2.81,0,0,0-1.9,2.68h0a.34.34,0,0,0,.35.35l23.81-.15a.35.35,0,0,0,.35-.35l0-3.23s-.11-4.07-3.43-4.84c0,0-1.61,3.42-4.87,3.12C330.25,433.91,330,431.39,330,431.39Z"/><path class="cls-7" d="M373.05,268.05l-15.83,7.64-25.07-16.44-7.66,8.86S343,290.64,353,292.58c2.73.53,10.36-3.49,10.36-3.49"/><path class="cls-7" d="M313.61,257.62a13.64,13.64,0,0,0,1.92,1.8c1.81,1.38,5.8,4.33,7.9,5.08.36.35.71.68,1,1l.44.43c.8.82,1.53,1.63,2.19,2.44l.09,0a5.62,5.62,0,0,0,1.67-1.4,14.87,14.87,0,0,0,3.36-5.41s0-.12.08-.29,0-.16.06-.27c-.29-.43-.64-1-1-1.55-.1-.16-.18-.32-.27-.48a12.53,12.53,0,0,1-1.8-4.42c-.28-2.74-.44-8.79-2.21-8.33s-3.21,4.13-2.76,6.83c0,0-5.22-4.21-6.15-8,0,0-.53-2.31-1.92-1.14-.43.36,0,4.53.74,5.63a38.75,38.75,0,0,1-2.64-3.51c-.41-.81-2.1-.52-1.32,2.33h0c-.13-.05-1-.51-1.53,0s.34,2.58.43,2.75a1,1,0,0,0-1.41.13C309.33,252.4,312.06,255.85,313.61,257.62Z"/><path class="cls-7" d="M324.33,253a10,10,0,0,0,1.43,4"/><path class="cls-7" d="M313,248.36a20.39,20.39,0,0,0,3.06,3.41"/><path class="cls-7" d="M311.93,251.12a31.22,31.22,0,0,0,3.2,3.15"/><line class="cls-7" x1="363.25" y1="290.05" x2="363.68" y2="285.76"/><rect class="cls-7" x="202.45" y="331.75" width="186.51" height="10"/><rect class="cls-11" x="388.97" y="331.75" width="75.4" height="10"/><rect class="cls-11" x="260.07" y="341.75" width="29.41" height="94.52"/><rect class="cls-7" x="211.39" y="341.75" width="48.69" height="94.52"/><rect class="cls-9" x="211.77" y="342.06" width="47.93" height="4.36"/><rect class="cls-9" x="260.44" y="342.06" width="28.67" height="4.36"/><rect class="cls-11" x="449.28" y="341.75" width="5.74" height="94.52"/><rect class="cls-7" x="443.48" y="341.75" width="5.8" height="94.52"/><rect class="cls-11" x="389.03" y="341.75" width="5.74" height="94.52"/><rect class="cls-7" x="383.23" y="341.75" width="5.8" height="94.52"/><path class="cls-7" d="M211.43,250.67l9.68,59.61a3,3,0,0,0,3,2.55,2.72,2.72,0,0,0,.49-.05l.25,0v0h79.5L294.1,247.14l-79.26,0a3.53,3.53,0,0,0-.65,0A3.15,3.15,0,0,0,211.43,250.67Z"/><line class="cls-7" x1="235.79" y1="258.07" x2="237.49" y2="268.53"/><line class="cls-7" x1="242.05" y1="258.07" x2="243.75" y2="268.53"/><line class="cls-7" x1="248.3" y1="258.07" x2="250" y2="268.53"/><line class="cls-7" x1="254.56" y1="258.07" x2="256.25" y2="268.53"/><line class="cls-7" x1="260.81" y1="258.07" x2="262.51" y2="268.53"/><line class="cls-7" x1="267.07" y1="258.07" x2="268.76" y2="268.53"/><line class="cls-7" x1="273.32" y1="258.07" x2="275.02" y2="268.53"/><path class="cls-7" d="M248.69,331.75h19.77l0,0a12.18,12.18,0,0,1-11.26-13.87L262,281.94h-13.1l-11.14,34A11.69,11.69,0,0,0,248.69,331.75Z"/><path class="cls-7" d="M269.23,331.75h20.32v-3.37H269.23a8.82,8.82,0,0,1-8.73-10.06l4.44-33h3.71v-3.37H262l-4.83,35.92a12.2,12.2,0,0,0,12.07,13.89Z"/><path class="cls-7" d="M356.44,327.9H336.25c-.1-8.55,16.95-8.56,19.71-8.2C357.41,321.51,357.12,324.28,356.44,327.9Z"/><path class="cls-7" d="M338.71,327.9s1.33-3.63,4.94-3.76"/><path class="cls-7" d="M343.65,327.9a4.56,4.56,0,0,1,3.83-2.92"/><path class="cls-7" d="M383.52,262.24l-.27,3.78.73,25.85,13.11-24.54,1.65-14.28c2.23.16,3.23-1.28,3.41-3.92s-.56-4.77-2.8-4.92a3.74,3.74,0,0,0-.58,0c-1.48-6.15-6.09-10.77-11.87-11.17-7.4-.52-12.08-3.66-12.45,15.31C374.28,256.7,375.49,261.26,383.52,262.24Z"/><path class="cls-7" d="M381.43,250.43a1.26,1.26,0,0,1-.81.22,1.21,1.21,0,0,1-.53-.16,1,1,0,0,1-.42-1.21,1.75,1.75,0,0,1,.92-.75l.28-.15a1.78,1.78,0,0,0,.9-2.06"/><path class="cls-7" d="M387.69,246a8.21,8.21,0,0,0-3-1.12"/><path class="cls-7" d="M380,243.79a8.53,8.53,0,0,0-3.05-.94"/><path class="cls-11" d="M357.46,328.17c5.93.22,37.93,1.19,46.29-4.44,7.7-5.19,11.91-12.91,14-28.92h0c.17-5.72,0-10.72-.65-13.84a13.11,13.11,0,0,0-4.41-7.31,22.76,22.76,0,0,0-6.57-3.87c-.73,2.06,3.25,6.71,3.64,8.06,1,3.35-1.12,6.72-1.84,10.14-.7,3.27-.13,6.67-.56,10A17.73,17.73,0,0,1,406,302.9c-1.93,4.54-5.44,8.5-8.85,12.21a19.25,19.25,0,0,1-5,4.36c-3.2,1.7-7.07,1.5-10.59.65a7.09,7.09,0,0,0-1.87-.3c-2.62.11-4,3.26-6.5,4.13-3,1.05-6.09-1.61-9.26-1.42a6.47,6.47,0,0,0-4,1.91,9.92,9.92,0,0,0-1.41,1.61A6.65,6.65,0,0,0,357.46,328.17Z"/><path class="cls-12" d="M261.59,282.34h0Z"/><path class="cls-12" d="M261.59,282.33h0Z"/><polygon class="cls-12" points="391.63 276.81 391.63 276.81 391.63 276.81 391.63 276.81"/><path class="cls-12" d="M391.65,276.77l0,0Z"/><path class="cls-12" d="M391.68,276.72v0Z"/><path class="cls-12" d="M367.21,439.75h0Z"/><path class="cls-12" d="M244,298.15c-2,6-.72,2.19,0,0Z"/><path class="cls-12" d="M261.59,282.3h0v0Z"/><path class="cls-12" d="M261.54,282.71v0Z"/><path class="cls-12" d="M391.65,276.78h0Z"/><path class="cls-12" d="M394,310.35h0Z"/><path class="cls-12" d="M360.36,316.26l0,.16v-.16Z"/><polygon class="cls-12" points="262.29 282.29 262.29 282.29 262.29 282.29 262.29 282.29"/><path class="cls-12" d="M393.93,310.36h0Z"/><path class="cls-12" d="M262.25,282.61v0Z"/><path class="cls-12" d="M360.31,316.77v-.17c0,.13,0,.26,0,.34v-.17Z"/><path class="cls-12" d="M360.29,317v0Z"/><path class="cls-12" d="M367.58,439.75Z"/><path class="cls-5" d="M429.32,300a2.55,2.55,0,0,1,1.75,2.86l-4.79,28.58H415c.12-1.57,2.2-16.75,2.94-33A33.71,33.71,0,0,1,429.32,300Zm-15,31.44H381.44v-3a99.86,99.86,0,0,0,15.47-1.83l.1,0,5.13-.81a18,18,0,0,0,14-11.35C416.14,314.69,414.64,329.72,414.33,331.4Zm-39.53-83c0-2.93.27-9.26,1.67-11.84,2,3.39,7.43,4.5,16.56,3.42a4.46,4.46,0,0,0-1,2.49c-.34,3.31,2.56,6.77,2.69,6.92a.35.35,0,0,0,.61-.23,7.1,7.1,0,0,1,.06-.86c.43-1.7,1.19-2.69,2.22-2.88,1.32-.24,2.89.84,3.7,2a4,4,0,0,1,.53,1.88,4.24,4.24,0,0,1-1.1,2.94,2.56,2.56,0,0,1-1.93.51.35.35,0,0,0-.37.31v.09c-.05.45-.34,2.93-1.63,14.14-3.78,7.07-4.81,9-5.06,9.46h0v0h0l0,.07h0v0h0c-3.37,1.17-5.91.81-7.76-1.09,0-.1-.29-10.33-.27-9.68.08-1.18.25-3.6.24-3.45h5.62a.35.35,0,1,0,0-.69h-5.9C375.9,261,374.63,256.78,374.8,248.36Zm23.58,4.73v0Zm-74.71,11.17a.42.42,0,0,0-.12-.08c-2-.72-5.75-3.47-7.82-5a15.12,15.12,0,0,1-1.86-1.74c-5.8-6.67-2.17-6.35-2.17-6,.31.35,2.95,3.23,3.43,3.23a.35.35,0,0,0,.27-.13.36.36,0,0,0-.06-.5,34.1,34.1,0,0,1-3.11-3l0-.06c-.38-.76-.76-2-.45-2.29.18-.18.53-.18,1.05,0a21,21,0,0,0,3.06,3.4.3.3,0,0,0,.22.08.36.36,0,0,0,.27-.12.35.35,0,0,0,0-.49,20.43,20.43,0,0,1-3-3.31c-.54-2.06.39-2.55.7-2a28.56,28.56,0,0,0,2.43,3.27l.25.31a.35.35,0,0,0,.56-.41,11.24,11.24,0,0,1-.81-5.17.71.71,0,0,1,.63-.23c.4.13.67.92.73,1.19.89,3.62,5.47,7.5,6.18,8.09a9.67,9.67,0,0,0,1.49,4,.37.37,0,0,0,.27.13.4.4,0,0,0,.22-.08.36.36,0,0,0,.05-.5,9.6,9.6,0,0,1-1.37-3.83h0c-.43-2.54.93-6,2.5-6.44a.31.31,0,0,1,.29.06c.88.63,1.18,4.34,1.35,6.54,0,.53.08,1,.12,1.44.18,1.82,2,5,3.05,6.48a13.77,13.77,0,0,1-3.41,5.69,5.16,5.16,0,0,1-1.38,1.2A47.53,47.53,0,0,0,323.67,264.26ZM360.38,316s0-.06,0,0Zm-.18,1.77h0l33.71-7.41h0l.32-.07h-.07l.18,0-.1,0,.12,0h0l1.08-.24,1-.23a.35.35,0,0,0,.27-.42.35.35,0,0,0-.42-.26l-.21,0-1.08.23-1.73.39V303.2a.35.35,0,1,0-.7,0v6.72l-31.7,7h0v-.09h0v0h0v0l0-.15h0v-.06h0v-.1h0v0h0v0h0c.16-1.64.8-8.18,3-30.61v-.06a.35.35,0,0,0-.3-.33.35.35,0,0,0-.39.32l-.31,3.14c-1.13.57-7.61,3.83-10,3.36-8.45-1.64-23.36-18.55-27.3-23.18,1.28.42,3.25-1.79,3.35-1.85a14.2,14.2,0,0,0,3.59-6.13s0,0,0,0a4.35,4.35,0,0,0,.11-1L357,276a.36.36,0,0,0,.35,0l15.83-7.65a19.06,19.06,0,0,1,9.41-2h.29l.26,9.49v0l.45,16a.36.36,0,0,0,.27.33H384a.34.34,0,0,0,.31-.19l7.9-14.77,5.1-9.54c5.25.95,11.18,2.68,15.19,6.19,4.64,4,4.4,8,4.9,12.45v.06c.17,2.33.08,6.42,0,8.47-1.67,11.66-4.11,22-13.85,28.55-4.87,3.27-17.74,4.06-23.6,4.34H357c.08-.29.38-1.42.42-1.72h0a11,11,0,0,0-.3-5.75v0a8.89,8.89,0,0,0-.83-1.63Zm.79-.9h0Zm.05-.49Zm-22.51,7.31c3.69-3.28,11.81-3.87,15.72-3.78.32,0,1.18.05,1.53.09,1.14,1.54,1.05,3.79.41,7.28,0,.08,0,.16,0,.25H344.21a4,4,0,0,1,3.28-2.22.35.35,0,0,0,.34-.36.37.37,0,0,0-.37-.33,4.74,4.74,0,0,0-4,2.91h-4.15a5.24,5.24,0,0,1,4.39-3.06.35.35,0,0,0,.34-.36.35.35,0,0,0-.36-.34,6.12,6.12,0,0,0-5.15,3.76h-1.88A5.35,5.35,0,0,1,338.53,323.71ZM268.3,285h-3.36a.27.27,0,0,0-.12,0,.26.26,0,0,0-.11.07.28.28,0,0,0-.12.21c0,.11-3.61,26.88-4.43,33a9.17,9.17,0,0,0,9.07,10.46h20v2.67h-20a11.85,11.85,0,0,1-11.72-13.5c3.44-25.63,4.45-33.15,4.71-35,0,0,0,0,0-.24h0v-.07h0c0-.1,0-.16,0-.21v0h6Zm-6.08-2.1,0-.19C262.23,282.74,262.22,282.82,262.22,282.85Zm28.5-36h-7.5l-6.53,0h-1.23l-61.31,0a3.52,3.52,0,0,0-3.07,3.89l4.06,25,.29,1.77.95,5.87.29,1.75L219,299.14l.27,1.66,1.55,9.54a3.38,3.38,0,0,0,3.34,2.84l14.19,0-.88,2.68a12.08,12.08,0,0,0,7.18,15.58H202.45a.35.35,0,0,0-.35.35v10a.35.35,0,0,0,.35.35H211v94.16a.35.35,0,0,0,.35.35h78.1a.35.35,0,0,0,.35-.35V342.1h31.83a11.75,11.75,0,0,0-1.68,7.22c.55,14.69,5.82,64.65,7.5,77.07a1,1,0,0,0,1,.83h.3l.05,2.54h-.12a1.65,1.65,0,0,0-1.53,1.1l-.88,2.49-7.34,2.5-1,.35a3.17,3.17,0,0,0-2.15,3,.69.69,0,0,0,.21.49.7.7,0,0,0,.49.2h1.86l22-.14a.69.69,0,0,0,.69-.7c0-.1,0-3.05,0-3.25s-.13-4-3.25-5l-.07-3.63a4.71,4.71,0,0,0,3.8-4.13l2.32-37.74c.28-2.07.49-4.23.7-6.32.36-3.48.71-7,1.35-10.46h0l.52-2.19c.86,17.79,4.28,41.63,7.32,59.12a2.19,2.19,0,0,0,2.17,1.81h.3l.05,2.54H356a1.66,1.66,0,0,0-1.54,1.1l-.88,2.49-8.38,2.85a3.16,3.16,0,0,0-2.14,3,.68.68,0,0,0,.2.49.71.71,0,0,0,.49.2h0l23.43-.15h.38a.7.7,0,0,0,.7-.7V435.8c0-.1-.13-4-3.26-5l-.08-3.63a4.79,4.79,0,0,0,3.91-4.41l1.61-52.09h12.43v65.62a.35.35,0,0,0,.35.35h11.53a.35.35,0,0,0,.35-.35V370.64h6.09v51.42h-3.81a.35.35,0,0,0-.35.35v3.68a.35.35,0,0,0,.35.35h15.74a.35.35,0,0,0,.35-.35v-3.68a.35.35,0,0,0-.35-.35h-3.82V370.64h8.35a3.24,3.24,0,0,0,3.21-2.72l4.33-25.82h17.93v94.16a.34.34,0,0,0,.35.35H455a.35.35,0,0,0,.35-.35V342.1h9a.35.35,0,0,0,.35-.35v-10a.35.35,0,0,0-.35-.35H427l4.77-28.46a3.26,3.26,0,0,0-2.23-3.65A34.51,34.51,0,0,0,418,297.73c.12-3.79.26-7.68,0-11.81-.24-5.15-1.14-9.09-5.12-12.54a23.16,23.16,0,0,0-6.66-3.92.07.07,0,0,0-.06,0,45.45,45.45,0,0,0-8.73-2.41l1.57-13.64a3,3,0,0,0,2.09-.7,4.61,4.61,0,0,0,1.33-3.26c4.7-6.45,6.32-11,4.81-13.55-1.19-2-4-2.08-5.12-2,.49-1.88,2-8.5-1-10s-5.49,1.46-6.94,4.41c-1.93-1.31-11.3-7.3-18.39-5.74a8.68,8.68,0,0,0-5.86,4.38c-3.52,6.16,3.4,16.79,4.22,18-.06,1.06-.1,2.18-.12,3.4-.17,8.55,1.2,13.12,9,14.21l-.22,3.12h-.28a19.66,19.66,0,0,0-9.71,2.06h0l-15.65,7.56L332.43,259l0,0-.07,0a1.89,1.89,0,0,0-1-.34,12,12,0,0,1-1.66-4.1c0-.41-.08-.9-.12-1.43-.27-3.4-.58-6.29-1.65-7a1,1,0,0,0-.87-.17c-1.86.49-3.17,3.73-3.1,6.35-1.41-1.25-4.68-4.41-5.38-7.23,0-.15-.34-1.41-1.19-1.69a1.3,1.3,0,0,0-1.3.35c-.45.38-.33,2.49,0,4.16a18,18,0,0,1-1.39-1.93c-.57-1.12-2.59-.73-2.11,1.94-1.21-.26-2.13.5-1.27,2.72a1.43,1.43,0,0,0-1.41,1.46c0,1.24,1.16,3.2,3.48,5.86a14.11,14.11,0,0,0,2,1.83c2.06,1.58,5.83,4.34,7.92,5.11.29.28.56.54.83.82a3.24,3.24,0,0,0,.09,2.61h0c.1.1,18.52,22.7,28.76,24.68,2.24.5,8-2.21,10-3.23-1.73,17.75-2.36,24.31-2.57,26.45v.21l0,.18v-.11l0,.18v-.06l0,.23v.13l0,.13h0v0h0c-5.11,1.13-4.71,1-4.89,1.17a3.63,3.63,0,0,0-.83,1c-3.62-.1-12.35.24-16.49,3.93a6.05,6.05,0,0,0-2.17,4.59h-43a.35.35,0,0,0-.35.35v3.27H289.9v-3a.35.35,0,0,0-.34-.35H269.23a8.46,8.46,0,0,1-8.39-9.66l.71-5.23h41.77a3.08,3.08,0,0,0,.53,0,5.28,5.28,0,0,0,.55,0,3.4,3.4,0,0,0,2.8-3.89l-9.7-59.61a3.38,3.38,0,0,0-3.12-2.84Zm-66.19,65.61a2.67,2.67,0,0,1-3.07-2.22l-9.69-59.61a2.81,2.81,0,0,1,2.45-3.08c.23,0-5.41,0,77.89,0a3.37,3.37,0,0,0-1.27,3.23l9.68,59.61a3.33,3.33,0,0,0,1.23,2.11H269V285.31h0v-3.36a.35.35,0,0,0-.35-.35H248.88a.34.34,0,0,0-.33.24l-10,30.6C223.26,312.43,224.67,312.42,224.53,312.44Zm14.83,14.07a11.18,11.18,0,0,1-1.28-10.46l5.87-17.9c.91-2.79,2.52-7.68,5.19-15.85h12.45v0a2.23,2.23,0,0,0,0,.23v.14h0l0,.12v-.06c-.24,1.74-1.22,9.08-4.72,35a12.54,12.54,0,0,0,8.3,13.59H248.68A11.19,11.19,0,0,1,239.36,326.51Zm22.16-43.66Zm-1.79,153.06h-48V342.1h48Zm29.41,0H260.43V342.1h28.71ZM318,439.19h-1.57a2.47,2.47,0,0,1,1.67-2.35l.46-.16Zm19.69-7.66a3.73,3.73,0,0,1,2,2.07,2.77,2.77,0,0,0-2.17,1.89,2.68,2.68,0,0,0,0,1.68h0l-15.92.1a.36.36,0,0,0-.35.36.35.35,0,0,0,.35.34h0l18.63-.12v1.2l-21.53.14h0l.61-2.76h0l7.31-2.48a.34.34,0,0,0,.21-.21l.93-2.66a1,1,0,0,1,1.84.31v0a3.18,3.18,0,0,0,2.62,3,5.2,5.2,0,0,0,4.75-2.54,4.64,4.64,0,0,0,.33-.52A1.92,1.92,0,0,1,337.7,431.53Zm-8.25-4.31h7.46l.07,3.46a.34.34,0,0,0-.14.15s-1.51,3.21-4.52,2.92c-1.67-.15-1.95-2.17-2-2.38a1.61,1.61,0,0,0-.83-1.39Zm15.64-58.83c-.65,3.46-1,7-1.35,10.49-.21,2.08-.43,4.24-.71,6.32L340.72,423a4,4,0,0,1-4,3.58h-8.28a.27.27,0,0,1-.27-.23c-1.66-12.35-6.93-62.15-7.49-77a10.9,10.9,0,0,1,1.83-7.2h27a9.52,9.52,0,0,0-1.36,1.42,3.21,3.21,0,0,0-1.32.86C344.9,346.43,343,352.25,345.09,368.39Zm.25,70.8h-1.56a2.45,2.45,0,0,1,1.67-2.35l.45-.16Zm22,.56h0ZM365,431.53a3.76,3.76,0,0,1,2,2.07,2.75,2.75,0,0,0-2.17,3.57h0l-15.92.1a.36.36,0,0,0-.35.36.35.35,0,0,0,.35.34h0l18.63-.12v1.2l-21.53.14.61-2.76L354,434a.38.38,0,0,0,.22-.21l.94-2.66a.94.94,0,0,1,1.83.31.08.08,0,0,0,0,0,3.14,3.14,0,0,0,2.6,3,5.17,5.17,0,0,0,4.75-2.52,6.11,6.11,0,0,0,.34-.54A2.13,2.13,0,0,1,365,431.53Zm-8.24-4.31h7.45l.07,3.46a.38.38,0,0,0-.13.15s-1.56,3.2-4.52,2.92c-1.67-.15-1.95-2.17-2-2.38a1.63,1.63,0,0,0-.83-1.4Zm26.1-57.28H370.47l.28-8.95,12.13-.08Zm0-9.73-12.47.08a.35.35,0,0,0-.35.34c-1.18,38.11-.7,22.85-1.92,62.07a4.09,4.09,0,0,1-4.07,3.83h-8.28a1.5,1.5,0,0,1-1.48-1.24c-2.9-16.67-10.09-62.6-6.58-79.2a6.92,6.92,0,0,1,2.94-4h32.21ZM323.12,341.4H202.8v-9.3H388.61v9.3Zm65.56,94.51h-5.1V342.1h5.1Zm5.73,0h-5V342.1h5Zm18.37-13.16v3h-15v-3Zm-10.88-.69V370.64h6.71v51.42Zm18.28-54.25a2.56,2.56,0,0,1-2.52,2.13H395.11v-9.52c11.12-2.07,16-11.25,18.07-18.32H424.5Zm-25.07-8.1V342.1h17.35C410.38,348.94,405.68,357.66,395.11,359.71Zm53.81,76.2h-5.09V342.1h5.09Zm5.75,0h-5.05V342.1h5.05ZM464,341.4H389.31v-9.3H464Z"/><path class="cls-12" d="M360.28,317v0Z"/><path class="cls-12" d="M394.11,310.32l-.08,0Z"/><path class="cls-12" d="M361,316.75v0l0-.16Z"/><path class="cls-12" d="M361,316.55v0Z"/><path class="cls-12" d="M394.41,310.26h0Z"/><path class="cls-12" d="M261.55,282.61v0Z"/><path class="cls-12" d="M361,316.81v0Z"/><path class="cls-12" d="M394.21,310.3l-.1,0Z"/><path class="cls-12" d="M361,316.44v0Z"/><path class="cls-12" d="M235.74,257.73a.34.34,0,0,0-.29.4l1.69,10.46a.35.35,0,0,0,.35.29h.06a.37.37,0,0,0,.29-.41L236.14,258A.36.36,0,0,0,235.74,257.73Z"/><path class="cls-12" d="M243.75,268.88h.05a.37.37,0,0,0,.29-.41L242.39,258a.35.35,0,0,0-.69.11l1.7,10.46A.35.35,0,0,0,243.75,268.88Z"/><path class="cls-12" d="M250,268.88h.06a.36.36,0,0,0,.28-.41L248.65,258a.36.36,0,0,0-.4-.29.34.34,0,0,0-.29.4l1.69,10.46A.35.35,0,0,0,250,268.88Z"/><path class="cls-12" d="M256.25,268.88h.06a.37.37,0,0,0,.29-.41L254.9,258a.35.35,0,1,0-.69.11l1.7,10.46A.35.35,0,0,0,256.25,268.88Z"/><path class="cls-12" d="M262.51,268.88h.05a.36.36,0,0,0,.29-.41L261.16,258a.36.36,0,0,0-.4-.29.34.34,0,0,0-.29.4l1.69,10.46A.35.35,0,0,0,262.51,268.88Z"/><path class="cls-12" d="M268.76,268.88h.06a.37.37,0,0,0,.29-.41L267.41,258a.35.35,0,1,0-.69.11l1.7,10.46A.35.35,0,0,0,268.76,268.88Z"/><path class="cls-12" d="M275,268.88h.06a.37.37,0,0,0,.29-.41L273.67,258a.36.36,0,0,0-.41-.29.34.34,0,0,0-.28.4l1.69,10.46A.35.35,0,0,0,275,268.88Z"/><path class="cls-12" d="M252.62,298.11a.2.2,0,0,0,.11,0,.35.35,0,0,0,.33-.24l1.5-4.51a.36.36,0,0,0-.22-.45.35.35,0,0,0-.44.22l-1.51,4.52A.35.35,0,0,0,252.62,298.11Z"/><path class="cls-12" d="M251,301.89v0Z"/><path class="cls-12" d="M247.89,313.54c.16-.47,1-3.15,3.77-11.45a.36.36,0,0,0-.22-.45.34.34,0,0,0-.44.23v0h0L251,302v.06h0v0c-.25.74-1.22,3.69-4.52,13.72a12,12,0,0,0,1.51,11.29.34.34,0,0,0,.49.08.38.38,0,0,0,.08-.49,11.27,11.27,0,0,1-1.42-10.65C249.65,308.19,248.12,312.85,247.89,313.54ZM251,302v0Zm-3.09,11.64Z"/><path class="cls-12" d="M250.93,302.1h0Z"/><path class="cls-12" d="M379.35,249.14a1.3,1.3,0,0,0,.56,1.65,1.59,1.59,0,0,0,.69.21h.12a1.57,1.57,0,0,0,.93-.3.37.37,0,0,0,.07-.5.36.36,0,0,0-.5-.06.93.93,0,0,1-1,0,.61.61,0,0,1-.28-.76,1.5,1.5,0,0,1,.76-.59l.3-.15a2.12,2.12,0,0,0,1.05-2.47.34.34,0,0,0-.44-.22.34.34,0,0,0-.22.43,1.44,1.44,0,0,1-.73,1.65l-.27.13A2.08,2.08,0,0,0,379.35,249.14Z"/><path class="cls-12" d="M382.32,253.59a2.05,2.05,0,0,1-1.61.69,1.92,1.92,0,0,1-1.55-1,.37.37,0,0,0-.49-.11.35.35,0,0,0-.11.48,2.66,2.66,0,0,0,2.13,1.37h.09a2.76,2.76,0,0,0,2.05-.92.35.35,0,0,0,0-.49A.34.34,0,0,0,382.32,253.59Z"/><path class="cls-12" d="M384.65,245.25a7.88,7.88,0,0,1,2.86,1.07.29.29,0,0,0,.18.05.34.34,0,0,0,.3-.16.35.35,0,0,0-.12-.48,8.34,8.34,0,0,0-3.11-1.17.35.35,0,1,0-.11.69Z"/><path class="cls-12" d="M379.84,244.1a.32.32,0,0,0,.16,0,.35.35,0,0,0,.31-.18.36.36,0,0,0-.14-.48,9,9,0,0,0-3.18-1,.34.34,0,0,0-.39.31.35.35,0,0,0,.31.39A8.25,8.25,0,0,1,379.84,244.1Z"/><path class="cls-12" d="M384.71,250.37c.53.12,1.1-.36,1.25-1.06a1.19,1.19,0,0,0-.7-1.5c-.53-.12-1.09.36-1.25,1.07A1.19,1.19,0,0,0,384.71,250.37Z"/><path class="cls-12" d="M378,245.37c-.5-.11-1,.34-1.17,1a1.12,1.12,0,0,0,.65,1.41c.51.11,1-.34,1.18-1A1.12,1.12,0,0,0,378,245.37Z"/><path class="cls-12" d="M398.61,247.88s.92.26,1.16.93a1.86,1.86,0,0,1-.47,1.64.34.34,0,0,0,.08.49.36.36,0,0,0,.2.06.34.34,0,0,0,.28-.14,2.12,2.12,0,0,0-1.07-3.65.35.35,0,0,0-.43.25A.34.34,0,0,0,398.61,247.88Z"/></g><path class="cls-11" d="M185.62,405.48s-2,10,0,15.66l-43.56.18v-16Z"/><g class="cls-13"><path class="cls-14" d="M166.31,412.12l18.41,2.16c0-.64,0-1.28,0-1.91Z"/></g><g class="cls-13"><path class="cls-14" d="M184.83,416.71l-35-.63L185,418.34C184.94,417.81,184.88,417.26,184.83,416.71Z"/></g><g class="cls-13"><path class="cls-14" d="M184.88,410.44c.05-.62.11-1.21.17-1.76l-28.06.13Z"/></g><path class="cls-15" d="M144.53,405.28s3,4.13,3,8.46-3.7,7.87-3.7,7.87Z"/><path class="cls-3" d="M145.13,420V406.34h41a1.19,1.19,0,0,0,1.19-1.19h0a1.19,1.19,0,0,0-1.19-1.19l-91.19,0a1.54,1.54,0,0,0-1.54,1.55V420.8A1.54,1.54,0,0,0,95,422.35l91.18,0a1.19,1.19,0,0,0,1.19-1.19h0a1.19,1.19,0,0,0-1.19-1.19Z"/><path class="cls-3" d="M187.31,421.14h0a1.19,1.19,0,0,0-1.19-1.19h-41V406.34h41a1.19,1.19,0,0,0,.1-2.37H144.16a1.54,1.54,0,0,0-1.54,1.55V420.8a1.54,1.54,0,0,0,1.45,1.54h42.05A1.19,1.19,0,0,0,187.31,421.14Z"/><path class="cls-15" d="M137.43,413.17a3.6,3.6,0,1,0-3.6,3.6A3.6,3.6,0,0,0,137.43,413.17Z"/><path class="cls-16" d="M133.83,417.28a4.11,4.11,0,1,1,4.11-4.11A4.11,4.11,0,0,1,133.83,417.28Zm0-7.19a3.09,3.09,0,1,0,3.08,3.08A3.08,3.08,0,0,0,133.83,410.09Z"/><path class="cls-11" d="M174.15,387.28s-2,9.94,0,15.49l-43.1.18V387.12Z"/><g class="cls-13"><path class="cls-14" d="M155.05,393.85,173.26,396c0-.63,0-1.26,0-1.88Z"/><path class="cls-14" d="M173.37,398.39l-34.61-.62L173.58,400Q173.45,399.22,173.37,398.39Z"/><path class="cls-14" d="M173.42,392.18c.05-.61.11-1.2.17-1.74l-27.76.13Z"/></g><path class="cls-15" d="M133.49,387.08s2.95,4.08,2.95,8.38-3.66,7.78-3.66,7.78Z"/><path class="cls-5" d="M134.09,401.6V388.13h40.58a1.18,1.18,0,0,0,1.18-1.18h0a1.17,1.17,0,0,0-1.18-1.17l-90.23,0a1.53,1.53,0,0,0-1.53,1.52v15.13A1.54,1.54,0,0,0,84.43,404l90.23,0a1.18,1.18,0,0,0,1.18-1.18h0a1.18,1.18,0,0,0-1.18-1.18Z"/><g class="cls-17"><path class="cls-5" d="M175.85,402.77h0a1.18,1.18,0,0,0-1.18-1.18H134.1V388.13h40.57a1.18,1.18,0,0,0,.1-2.35H133.16a1.53,1.53,0,0,0-1.53,1.53v15.13a1.52,1.52,0,0,0,1.44,1.51h41.6A1.18,1.18,0,0,0,175.85,402.77Z"/></g><path class="cls-15" d="M126.47,394.89a3.56,3.56,0,1,0-3.56,3.56A3.56,3.56,0,0,0,126.47,394.89Z"/><path class="cls-16" d="M122.91,399a4.06,4.06,0,1,1,4.06-4.06A4.06,4.06,0,0,1,122.91,399Zm0-7.11a3.05,3.05,0,1,0,3,3.05A3.06,3.06,0,0,0,122.91,391.84Z"/><path class="cls-11" d="M182.54,369.15s-2,9.93,0,15.49l-43.1.18V369Z"/><g class="cls-13"><path class="cls-14" d="M163.43,375.72l18.22,2.13c0-.63,0-1.27,0-1.88Z"/><path class="cls-14" d="M181.76,380.26l-34.62-.62L182,381.87C181.87,381.35,181.81,380.81,181.76,380.26Z"/><path class="cls-14" d="M181.81,374.05c.05-.61.11-1.2.17-1.74l-27.77.13Z"/></g><path class="cls-15" d="M141.88,369s3,4.08,3,8.37-3.66,7.79-3.66,7.79Z"/><path class="cls-3" d="M142.47,383.47V370h40.58a1.17,1.17,0,0,0,1.17-1.18h0a1.16,1.16,0,0,0-1.17-1.17H92.82a1.53,1.53,0,0,0-1.53,1.53v15.13a1.54,1.54,0,0,0,1.53,1.53l90.23,0a1.18,1.18,0,0,0,1.18-1.18h0a1.18,1.18,0,0,0-1.18-1.18Z"/><g class="cls-18"><path class="cls-19" d="M184.24,384.64h0a1.17,1.17,0,0,0-1.18-1.17H142.48V370h40.58a1.18,1.18,0,0,0,.1-2.35H141.54a1.52,1.52,0,0,0-1.52,1.53V384.3a1.52,1.52,0,0,0,1.43,1.52h41.61A1.17,1.17,0,0,0,184.24,384.64Z"/></g><path class="cls-5" d="M134.85,376.76a3.56,3.56,0,1,0-3.55,3.55A3.55,3.55,0,0,0,134.85,376.76Z"/><path class="cls-16" d="M131.3,380.82a4.06,4.06,0,1,1,4.06-4.06A4.06,4.06,0,0,1,131.3,380.82Zm0-7.11a3.05,3.05,0,1,0,3,3.05A3,3,0,0,0,131.3,373.71Z"/><path class="cls-7" d="M106,415.79H104.6v-2.56H102v2.56h-1.41v-6.28H102V412h2.6v-2.5H106Z"/><path class="cls-7" d="M111.87,410.66h-1.79v5.13h-1.42v-5.13h-1.78v-1.15h5Z"/><path class="cls-7" d="M119.88,415.79h-1.4V412c0-.41,0-.85,0-1.34h0a7.9,7.9,0,0,1-.2.83l-1.47,4.27h-1.16l-1.5-4.23a8.58,8.58,0,0,1-.19-.87h0c0,.62,0,1.16,0,1.63v3.47h-1.27v-6.28h2.07l1.28,3.72a5,5,0,0,1,.23.9h0a9,9,0,0,1,.24-.91l1.29-3.71h2Z"/><path class="cls-7" d="M125.05,415.79h-3.74v-6.28h1.41v5.13h2.33Z"/><path class="cls-7" d="M94.26,391.2a1.8,1.8,0,0,0-.71-.54,2.4,2.4,0,0,0-1-.2,2.52,2.52,0,0,0-1.86.82,3.12,3.12,0,0,0-.55.92,3.4,3.4,0,0,0-.19,1.16,3.06,3.06,0,0,0,.73,2.08,2.43,2.43,0,0,0,1.81.82,2.27,2.27,0,0,0,1.08-.26,2.18,2.18,0,0,0,.77-.71L96,396.52a3.36,3.36,0,0,1-1.44,1.18,4.42,4.42,0,0,1-1.81.38,5.53,5.53,0,0,1-1.94-.33,4.46,4.46,0,0,1-1.54-.94,4.32,4.32,0,0,1-1-1.49,5.52,5.52,0,0,1,0-3.92,4.32,4.32,0,0,1,1-1.49,4.46,4.46,0,0,1,1.54-.94,5.53,5.53,0,0,1,1.94-.33,4.48,4.48,0,0,1,.8.07,4,4,0,0,1,1.58.62,3.26,3.26,0,0,1,.66.63Z"/><path class="cls-7" d="M96.92,393.21H99.6v-2.68h1.6v2.68h2.68v1.6H101.2v2.68H99.6v-2.68H96.92Z"/><path class="cls-7" d="M105.38,393.21h2.68v-2.68h1.6v2.68h2.68v1.6h-2.68v2.68h-1.6v-2.68h-2.68Z"/><path class="cls-7" d="M98.48,377.81a6.58,6.58,0,0,1-.11,1.19,2.69,2.69,0,0,1-.41,1,2.12,2.12,0,0,1-.86.72,3.39,3.39,0,0,1-1.47.27,3.07,3.07,0,0,1-1.79-.51,2.34,2.34,0,0,1-.94-1.57l1.8-.44a.78.78,0,0,0,.3.55.85.85,0,0,0,.58.23.78.78,0,0,0,.53-.17,1,1,0,0,0,.28-.42,1.92,1.92,0,0,0,.1-.55,5.34,5.34,0,0,0,0-.55v-5.72h2Z"/><path class="cls-7" d="M103.1,371.87h1.63l3.88,8.92h-2.22l-.77-1.89h-3.46l-.75,1.89H99.25Zm.76,2.6-1.08,2.77H105Z"/><path class="cls-7" d="M107.84,371.87h2.24l2.21,5.85h0l2.24-5.85h2.1L113,380.79h-1.57Z"/><path class="cls-7" d="M119.84,371.87h1.62l3.88,8.92h-2.21l-.77-1.89h-3.47l-.74,1.89H116Zm.75,2.6-1.08,2.77h2.18Z"/><rect class="cls-20" x="375.1" y="151.02" width="61.39" height="21.55" rx="10.78"/><text class="cls-21" transform="translate(6.32 -40.7)">About</text><path class="cls-5" d="M393.24,167.41a3.49,3.49,0,0,1-1.54-1.17,3.17,3.17,0,0,1-.61-1.87H394a1.3,1.3,0,0,0,1.38,1.27,1.47,1.47,0,0,0,.95-.28,1,1,0,0,0,.07-1.45,2.35,2.35,0,0,0-.68-.44,10.27,10.27,0,0,0-1.15-.4,12.8,12.8,0,0,1-1.76-.66,3.3,3.3,0,0,1-1.17-1,2.72,2.72,0,0,1-.49-1.7,2.92,2.92,0,0,1,1.12-2.43,5.37,5.37,0,0,1,5.89,0,3.18,3.18,0,0,1,1.21,2.45h-2.93a1.13,1.13,0,0,0-.4-.85,1.41,1.41,0,0,0-.93-.31,1.17,1.17,0,0,0-.79.26,1,1,0,0,0-.3.76.92.92,0,0,0,.5.84,9,9,0,0,0,1.59.65,15.23,15.23,0,0,1,1.75.69,3.44,3.44,0,0,1,1.16,1,2.55,2.55,0,0,1,.49,1.63,3.19,3.19,0,0,1-.48,1.72,3.4,3.4,0,0,1-1.4,1.24,4.78,4.78,0,0,1-2.17.46A5.63,5.63,0,0,1,393.24,167.41Z"/><path class="cls-5" d="M403.85,158.75V161h3.63v2.09h-3.63v2.44H408v2.17h-6.81V156.58H408v2.17Z"/><path class="cls-5" d="M412.09,167.08a5.45,5.45,0,0,1-2.07-2,5.64,5.64,0,0,1-.77-2.94,5.55,5.55,0,0,1,.77-2.93,5.45,5.45,0,0,1,2.07-2,6,6,0,0,1,5.75,0,5.36,5.36,0,0,1,2.06,2,6.08,6.08,0,0,1,0,5.87,5.43,5.43,0,0,1-2.06,2,6,6,0,0,1-5.74,0Zm5-2.63a3.84,3.84,0,0,0,0-4.69,2.72,2.72,0,0,0-2.13-.88,2.77,2.77,0,0,0-2.14.87,3.87,3.87,0,0,0,0,4.71,3,3,0,0,0,4.27,0Z"/></g></g></svg>